<?xml version="1.0" standalone="no"?>
<!DOCTYPE svg PUBLIC "-//W3C//DTD SVG 20010904//EN"
 "http://www.w3.org/TR/2001/REC-SVG-20010904/DTD/svg10.dtd">
<svg version="1.0" xmlns="http://www.w3.org/2000/svg"
 width="404.000000pt" height="294.000000pt" viewBox="0 0 404.000000 294.000000"
 preserveAspectRatio="xMidYMid meet">

<g transform="translate(0.000000,294.000000) scale(0.100000,-0.100000)"
fill="#000000" stroke="none">
<path d="M0 1470 l0 -1470 2020 0 2020 0 0 1470 0 1470 -2020 0 -2020 0 0
-1470z m2393 1126 c128 -74 369 -213 537 -309 168 -96 313 -182 323 -191 16
-15 17 -59 17 -648 0 -348 -4 -638 -8 -645 -4 -6 -77 -51 -162 -101 -85 -49
-332 -191 -547 -316 -216 -124 -398 -226 -405 -226 -7 0 -260 143 -563 318
l-550 317 -3 646 c-2 510 1 649 10 656 7 6 135 80 283 166 149 85 391 225 540
311 148 86 275 156 283 156 7 0 117 -60 245 -134z"/>
<path d="M1788 2426 c-194 -112 -423 -244 -508 -293 l-155 -89 0 -599 0 -599
465 -269 c256 -147 487 -279 513 -293 l48 -25 387 222 c213 122 443 255 512
294 l125 73 3 595 2 596 -67 39 c-38 22 -84 49 -103 59 -19 11 -215 123 -435
250 -220 126 -407 232 -417 235 -10 4 -138 -63 -370 -196z m468 -492 l104 -55
0 -49 0 -48 120 -67 120 -67 0 -112 0 -113 51 -23 c41 -20 49 -28 45 -45 -3
-11 -6 -65 -6 -120 l0 -100 -102 -57 c-98 -54 -103 -56 -130 -42 -27 14 -33
12 -166 -61 -76 -41 -141 -75 -145 -75 -4 0 -67 34 -140 75 -128 71 -135 74
-166 62 -30 -11 -38 -9 -124 37 -51 27 -98 53 -105 59 -9 7 -12 41 -10 125 l3
116 45 26 45 26 5 113 5 113 105 59 c58 32 109 60 115 62 5 2 12 27 15 56 l5
53 95 53 c52 30 99 54 104 54 5 1 55 -24 112 -55z"/>
<path d="M2077 1912 c-37 -20 -66 -41 -64 -47 2 -5 33 -26 70 -45 l67 -35 66
36 c36 20 66 40 67 45 1 5 -30 26 -68 46 l-70 37 -68 -37z"/>
<path d="M1978 1821 c-1 -6 -2 -44 0 -85 l4 -75 63 -36 c35 -19 68 -35 75 -35
7 0 10 26 8 82 l-3 82 -72 38 c-39 21 -73 34 -75 29z"/>
<path d="M2245 1792 l-70 -37 -3 -82 c-2 -46 1 -83 5 -83 5 0 39 16 76 36 l67
35 0 85 c0 46 -1 84 -2 84 -2 0 -34 -17 -73 -38z"/>
<path d="M1826 1677 l-89 -52 -1 -79 c-1 -87 6 -98 48 -71 25 17 28 16 132
-42 59 -32 106 -61 106 -65 -1 -5 -2 -59 -2 -120 l0 -113 -47 -25 c-26 -14
-48 -29 -50 -35 -3 -12 205 -129 228 -128 8 1 54 24 101 51 47 27 93 52 102
55 29 11 17 31 -34 60 l-50 28 0 108 c0 71 4 112 13 123 6 8 54 39 106 68 92
51 95 52 122 36 46 -27 49 -22 49 68 l0 84 -94 51 c-52 28 -97 51 -100 51 -3
0 -6 -20 -6 -44 l0 -44 -100 -56 c-55 -31 -106 -56 -113 -56 -6 0 -55 24 -107
53 l-95 52 -3 48 c-2 29 -8 47 -15 46 -7 0 -52 -24 -101 -52z"/>
<path d="M1733 1404 c-35 -20 -63 -39 -63 -42 0 -4 32 -24 72 -44 l72 -37 69
36 c37 20 66 41 64 46 -4 14 -118 77 -137 77 -8 -1 -43 -17 -77 -36z"/>
<path d="M2402 1404 c-34 -20 -59 -40 -56 -45 3 -5 36 -25 73 -43 l67 -34 67
35 c37 20 67 41 67 47 0 12 -118 76 -140 76 -8 -1 -43 -17 -78 -36z"/>
<path d="M2310 1246 l0 -84 73 -41 72 -40 5 67 c3 37 3 75 1 84 -2 14 -129 98
-147 98 -2 0 -4 -38 -4 -84z"/>
<path d="M1640 1241 l0 -79 71 -41 c39 -23 73 -41 75 -41 2 0 4 38 4 84 l0 84
-64 36 c-35 20 -69 36 -75 36 -7 0 -11 -29 -11 -79z"/>
<path d="M1898 1284 l-68 -36 0 -79 c0 -64 3 -79 15 -79 19 0 119 56 135 75
13 16 9 147 -5 151 -5 2 -40 -13 -77 -32z"/>
<path d="M2583 1291 c-82 -44 -83 -46 -83 -120 0 -36 4 -71 8 -77 5 -7 31 2
80 28 l72 40 0 79 c0 57 -4 79 -12 79 -7 -1 -36 -13 -65 -29z"/>
</g>
</svg>
